<svg xmlns="http://www.w3.org/2000/svg" viewBox="0 0 400 400" width="400" height="400">
  <!-- Board background -->
  <rect width="400" height="400" fill="#f0f0f0"/>

  <!-- Draw 8x8 grid -->
  <g>
    <!-- Chessboard squares -->
    <g>
      <!-- Alternating dark and light green colors -->
      <rect x="0" y="0" width="50" height="50" fill="#769656"/>
      <rect x="50" y="0" width="50" height="50" fill="#eeeed2"/>
      <rect x="100" y="0" width="50" height="50" fill="#769656"/>
      <rect x="150" y="0" width="50" height="50" fill="#eeeed2"/>
      <rect x="200" y="0" width="50" height="50" fill="#769656"/>
      <rect x="250" y="0" width="50" height="50" fill="#eeeed2"/>
      <rect x="300" y="0" width="50" height="50" fill="#769656"/>
      <rect x="350" y="0" width="50" height="50" fill="#eeeed2"/>
    </g>
    <g transform="translate(0, 50)">
      <rect x="0" y="0" width="50" height="50" fill="#eeeed2"/>
      <rect x="50" y="0" width="50" height="50" fill="#769656"/>
      <rect x="100" y="0" width="50" height="50" fill="#eeeed2"/>
      <rect x="150" y="0" width="50" height="50" fill="#769656"/>
      <rect x="200" y="0" width="50" height="50" fill="#eeeed2"/>
      <rect x="250" y="0" width="50" height="50" fill="#769656"/>
      <rect x="300" y="0" width="50" height="50" fill="#eeeed2"/>
      <rect x="350" y="0" width="50" height="50" fill="#769656"/>
    </g>
    <g transform="translate(0, 100)">
      <rect x="0" y="0" width="50" height="50" fill="#769656"/>
      <rect x="50" y="0" width="50" height="50" fill="#eeeed2"/>
      <rect x="100" y="0" width="50" height="50" fill="#769656"/>
      <rect x="150" y="0" width="50" height="50" fill="#eeeed2"/>
      <rect x="200" y="0" width="50" height="50" fill="#769656"/>
      <rect x="250" y="0" width="50" height="50" fill="#eeeed2"/>
      <rect x="300" y="0" width="50" height="50" fill="#769656"/>
      <rect x="350" y="0" width="50" height="50" fill="#eeeed2"/>
    </g>
    <g transform="translate(0, 150)">
      <rect x="0" y="0" width="50" height="50" fill="#eeeed2"/>
      <rect x="50" y="0" width="50" height="50" fill="#769656"/>
      <rect x="100" y="0" width="50" height="50" fill="#eeeed2"/>
      <rect x="150" y="0" width="50" height="50" fill="#769656"/>
      <rect x="200" y="0" width="50" height="50" fill="#eeeed2"/>
      <rect x="250" y="0" width="50" height="50" fill="#769656"/>
      <rect x="300" y="0" width="50" height="50" fill="#eeeed2"/>
      <rect x="350" y="0" width="50" height="50" fill="#769656"/>
    </g>
    <g transform="translate(0, 200)">
      <rect x="0" y="0" width="50" height="50" fill="#769656"/>
      <rect x="50" y="0" width="50" height="50" fill="#eeeed2"/>
      <rect x="100" y="0" width="50" height="50" fill="#769656"/>
      <rect x="150" y="0" width="50" height="50" fill="#eeeed2"/>
      <rect x="200" y="0" width="50" height="50" fill="#769656"/>
      <rect x="250" y="0" width="50" height="50" fill="#eeeed2"/>
      <rect x="300" y="0" width="50" height="50" fill="#769656"/>
      <rect x="350" y="0" width="50" height="50" fill="#eeeed2"/>
    </g>
    <g transform="translate(0, 250)">
      <rect x="0" y="0" width="50" height="50" fill="#eeeed2"/>
      <rect x="50" y="0" width="50" height="50" fill="#769656"/>
      <rect x="100" y="0" width="50" height="50" fill="#eeeed2"/>
      <rect x="150" y="0" width="50" height="50" fill="#769656"/>
      <rect x="200" y="0" width="50" height="50" fill="#eeeed2"/>
      <rect x="250" y="0" width="50" height="50" fill="#769656"/>
      <rect x="300" y="0" width="50" height="50" fill="#eeeed2"/>
      <rect x="350" y="0" width="50" height="50" fill="#769656"/>
    </g>
    <g transform="translate(0, 300)">
      <rect x="0" y="0" width="50" height="50" fill="#769656"/>
      <rect x="50" y="0" width="50" height="50" fill="#eeeed2"/>
      <rect x="100" y="0" width="50" height="50" fill="#769656"/>
      <rect x="150" y="0" width="50" height="50" fill="#eeeed2"/>
      <rect x="200" y="0" width="50" height="50" fill="#769656"/>
      <rect x="250" y="0" width="50" height="50" fill="#eeeed2"/>
      <rect x="300" y="0" width="50" height="50" fill="#769656"/>
      <rect x="350" y="0" width="50" height="50" fill="#eeeed2"/>
    </g>
    <g transform="translate(0, 350)">
      <rect x="0" y="0" width="50" height="50" fill="#eeeed2"/>
      <rect x="50" y="0" width="50" height="50" fill="#769656"/>
      <rect x="100" y="0" width="50" height="50" fill="#eeeed2"/>
      <rect x="150" y="0" width="50" height="50" fill="#769656"/>
      <rect x="200" y="0" width="50" height="50" fill="#eeeed2"/>
      <rect x="250" y="0" width="50" height="50" fill="#769656"/>
      <rect x="300" y="0" width="50" height="50" fill="#eeeed2"/>
      <rect x="350" y="0" width="50" height="50" fill="#769656"/>/>
    </g>
  </g>

  <!-- Add numbers to each square -->
  <g font-family="Arial" font-size="12" text-anchor="middle">
    <text x="25" y="25" fill="black">0</text>
    <text x="75" y="25" fill="black">1</text>
    <text x="125" y="25" fill="black">2</text>
    <text x="175" y="25" fill="black">3</text>
    <text x="225" y="25" fill="black">4</text>
    <text x="275" y="25" fill="black">5</text>
    <text x="325" y="25" fill="black">6</text>
    <text x="375" y="25" fill="black">7</text>

    <text x="25" y="75" fill="black">8</text>
    <text x="75" y="75" fill="black">9</text>
    <text x="125" y="75" fill="black">10</text>
    <text x="175" y="75" fill="black">11</text>
    <text x="225" y="75" fill="black">12</text>
    <text x="275" y="75" fill="black">13</text>
    <text x="325" y="75" fill="black">14</text>
    <text x="375" y="75" fill="black">15</text>

    <text x="25" y="125" fill="black">16</text>
    <text x="75" y="125" fill="black">17</text>
    <text x="125" y="125" fill="black">18</text>
    <text x="175" y="125" fill="black">19</text>
    <text x="225" y="125" fill="black">20</text>
    <text x="275" y="125" fill="black">21</text>
    <text x="325" y="125" fill="black">22</text>
    <text x="375" y="125" fill="black">23</text>

    <text x="25" y="175" fill="black">24</text>
    <text x="75" y="175" fill="black">25</text>
    <text x="125" y="175" fill="black">26</text>
    <text x="175" y="175" fill="black">27</text>
    <text x="225" y="175" fill="black">28</text>
    <text x="275" y="175" fill="black">29</text>
    <text x="325" y="175" fill="black">30</text>
    <text x="375" y="175" fill="black">31</text>

    <text x="25" y="225" fill="black">32</text>
    <text x="75" y="225" fill="black">33</text>
    <text x="125" y="225" fill="black">34</text>
    <text x="175" y="225" fill="black">35</text>
    <text x="225" y="225" fill="black">36</text>
    <text x="275" y="225" fill="black">37</text>
    <text x="325" y="225" fill="black">38</text>
    <text x="375" y="225" fill="black">39</text>

    <text x="25" y="275" fill="black">40</text>
    <text x="75" y="275" fill="black">41</text>
    <text x="125" y="275" fill="black">42</text>
    <text x="175" y="275" fill="black">43</text>
    <text x="225" y="275" fill="black">44</text>
    <text x="275" y="275" fill="black">45</text>
    <text x="325" y="275" fill="black">46</text>
    <text x="375" y="275" fill="black">47</text>

    <text x="25" y="325" fill="black">48</text>
    <text x="75" y="325" fill="black">49</text>
    <text x="125" y="325" fill="black">50</text>
    <text x="175" y="325" fill="black">51</text>
    <text x="225" y="325" fill="black">52</text>
    <text x="275" y="325" fill="black">53</text>
    <text x="325" y="325" fill="black">54</text>
    <text x="375" y="325" fill="black">55</text>

    <text x="25" y="375" fill="black">56</text>
    <text x="75" y="375" fill="black">57</text>
    <text x="125" y="375" fill="black">58</text>
    <text x="175" y="375" fill="black">59</text>
    <text x="225" y="375" fill="black">60</text>
    <text x="275" y="375" fill="black">61</text>
    <text x="325" y="375" fill="black">62</text>
    <text x="375" y="375" fill="black">63</text>
  </g>
</svg>
